<?xml version="1.0" standalone="no"?>
<!DOCTYPE svg PUBLIC "-//W3C//DTD SVG 20010904//EN"
 "http://www.w3.org/TR/2001/REC-SVG-20010904/DTD/svg10.dtd">
<svg version="1.0" xmlns="http://www.w3.org/2000/svg"
 width="647.000000pt" height="647.000000pt" viewBox="0 0 647.000000 647.000000"
 preserveAspectRatio="xMidYMid meet">
<metadata>
Created by potrace 1.11, written by Peter Selinger 2001-2013
</metadata>
<g transform="translate(0.000000,647.000000) scale(0.100000,-0.100000)"
fill="#000000" stroke="none">
<path d="M654 5263 l1 -748 168 -2 167 -1 0 749 0 749 -169 0 -169 0 2 -747z"/>
<path d="M5530 5243 l0 -748 157 2 c87 0 163 2 169 2 9 1 12 192 10 744 l-1
742 -167 3 -168 2 0 -747z"/>
<path d="M1290 5065 l0 -555 168 2 167 3 2 553 1 552 -169 0 -169 0 0 -555z"/>
<path d="M4910 5048 l0 -553 162 1 c90 1 166 2 170 3 3 1 6 249 6 551 l0 550
-169 0 -169 0 0 -552z"/>
<path d="M1900 4900 l0 -380 170 0 c129 0 170 3 171 13 1 15 1 729 0 740 -1 4
-77 7 -171 7 l-170 0 0 -380z"/>
<path d="M4290 4878 l0 -383 170 0 170 0 1 153 c0 190 0 241 0 447 l-1 165
-170 0 -170 0 0 -382z"/>
<path d="M2479 4853 c0 -105 0 -186 0 -268 l1 -65 170 0 c169 0 170 0 171 23
1 33 1 327 0 362 l-1 30 -170 0 -170 0 -1 -82z"/>
<path d="M3710 4703 l0 -208 166 2 c92 1 169 4 171 7 5 4 6 170 3 369 l0 37
-170 0 -170 0 0 -207z"/>
<path d="M3242 4732 l-153 -3 3 -107 3 -107 168 -1 167 -1 0 107 c0 94 -2 108
-17 111 -10 2 -87 3 -171 1z"/>
<path d="M675 4295 c-308 -55 -558 -303 -641 -635 -18 -71 -19 -135 -19 -1275
l0 -1200 23 -85 c85 -319 333 -565 626 -619 38 -7 228 -10 525 -9 614 2 1006
2 2942 0 958 -1 1647 2 1675 7 307 58 554 307 636 637 21 89 21 90 21 1274 l0
1185 -26 99 c-89 334 -331 566 -652 625 -29 5 -1078 9 -2545 9 -1948 -1 -2510
-4 -2565 -13z m5121 -303 c133 -41 239 -131 309 -265 68 -132 66 -83 62 -1367
-1 -635 -5 -1162 -8 -1170 -3 -8 -9 -28 -14 -45 -17 -65 -78 -167 -136 -229
-68 -74 -161 -127 -255 -146 -43 -9 -495 -11 -1833 -6 -977 3 -1810 6 -1851 7
-41 0 -346 -2 -676 -7 -659 -8 -678 -7 -793 48 -124 59 -235 202 -277 358 -16
60 -17 150 -17 1225 l0 1160 26 80 c69 209 230 352 422 373 33 4 1165 7 2515
6 l2455 0 71 -22z"/>
<path d="M2304 3530 c-234 -33 -341 -127 -390 -340 -31 -135 -31 -658 0 -805
9 -44 48 -135 75 -174 44 -66 147 -129 241 -148 125 -25 491 -27 600 -4 215
46 313 154 351 389 13 84 13 602 -1 689 -35 221 -119 324 -307 375 -65 17
-113 21 -293 24 -118 1 -243 -1 -276 -6z m412 -356 c71 -35 79 -73 79 -399 0
-219 -2 -256 -18 -298 -29 -73 -70 -90 -217 -91 -137 -1 -180 7 -219 40 -46
38 -53 95 -49 397 3 283 6 300 59 340 39 28 81 35 210 32 90 -2 125 -6 155
-21z"/>
<path d="M4982 3530 c-67 -9 -148 -33 -196 -57 -55 -28 -123 -102 -150 -163
-49 -108 -59 -189 -62 -495 -2 -268 -1 -297 30 -458 9 -51 54 -135 96 -181 63
-68 182 -118 305 -127 122 -8 432 -3 502 10 85 15 195 66 241 111 50 51 97
161 119 285 2 11 5 153 7 315 2 256 0 307 -16 390 -43 214 -125 306 -323 358
-56 14 -111 18 -280 19 -115 1 -239 -3 -273 -7z m419 -356 c19 -11 43 -37 54
-59 19 -37 20 -60 20 -325 0 -265 -1 -288 -20 -325 -33 -65 -74 -80 -230 -80
-156 0 -197 15 -230 80 -19 37 -20 60 -20 325 0 260 2 288 19 323 36 72 78 86
252 83 99 -2 127 -6 155 -22z"/>
<path d="M958 3522 l-318 -2 0 -43 c-1 -69 -1 -1255 0 -1339 l0 -78 195 0 195
0 0 214 0 214 148 -2 c229 -3 233 -7 240 -258 l4 -168 194 0 194 0 1 53 c4
289 -4 364 -47 430 -30 46 -99 91 -165 108 -27 7 -49 16 -49 20 0 4 17 10 38
14 20 4 37 5 37 3 0 -1 16 8 35 21 121 83 150 153 151 357 0 307 -87 409 -378
444 -129 15 -130 15 -475 12z m389 -337 c54 -23 67 -55 68 -169 0 -181 -17
-196 -237 -204 l-148 -5 0 197 0 197 143 -2 c92 0 153 -6 174 -14z"/>
<path d="M3668 3522 c-276 -2 -358 -5 -359 -15 -1 -16 -1 -1429 0 -1440 1 -5
196 -7 434 -4 344 3 445 7 498 20 197 46 262 140 263 377 1 139 -11 183 -66
245 -42 47 -140 104 -183 106 -11 0 10 10 48 23 80 27 129 70 154 135 14 36
18 75 17 181 0 119 -3 141 -23 188 -44 98 -128 150 -280 172 -104 15 -126 15
-503 12z m397 -355 c21 -23 24 -38 24 -98 0 -66 -3 -74 -29 -100 l-28 -29
-171 0 -171 0 0 131 0 130 176 -3 176 -3 23 -28z m21 -540 c20 -24 24 -39 24
-98 0 -82 -18 -125 -58 -136 -15 -5 -101 -8 -192 -8 l-165 0 -3 138 -3 138
187 -3 186 -3 24 -28z"/>
<path d="M2280 1385 l0 -185 997 2 997 3 0 180 0 180 -997 3 -997 2 0 -185z"/>
</g>
</svg>
